<?xml version="1.0" encoding="UTF-8"?>
<svg width="46px" height="46px" viewBox="0 0 46 46" version="1.1" xmlns="http://www.w3.org/2000/svg" xmlns:xlink="http://www.w3.org/1999/xlink">
    <!-- Generator: Sketch 61.2 (89653) - https://sketch.com -->
    <title>blog</title>
    <desc>Created with Sketch.</desc>
    <g id="blog" stroke="none" stroke-width="1" fill="none" fill-rule="evenodd">
        <path d="M23,-0.0001 C35.703,-0.0001 46,10.2969 46,22.9999 C46,35.7029 35.703,45.9999 23,45.9999 C10.297,45.9999 0,35.7029 0,22.9999 C0,10.2969 10.297,-0.0001 23,-0.0001" id="Fill-1" fill="#52B335"></path>
        <path d="M33.1702,19.9095 C34.3352,19.9095 34.9422,20.7655 34.9422,20.7655 L34.9422,20.7655 L34.9422,20.1365 L36.9932,20.1365 L36.9932,26.4855 C36.9932,29.8632805 34.2027396,29.9963935 33.9304995,30.0013425 L33.0882,30.0015131 L33.0882,28.0085 L33.5962,28.0085 C35.0902,28.0085 34.9422,26.3625 34.9422,26.3625 L34.9422,26.3625 L34.9422,25.8375 C34.2862,26.7475 33.0882,26.6955 33.0882,26.6955 C30.3090108,26.6955 30.188299,23.7086118 30.1833694,23.3857049 L30.1831841,23.3575 C30.1831841,20.1157381 32.6283377,19.9175091 33.0940812,19.9091549 Z M25.5464,19.9095 C29.2334,19.9095 29.1154,23.3815 29.1154,23.3815 C29.1154,26.6337195 25.8861026,26.7977933 25.5710491,26.8060617 L25.5464,26.8065 C22.2803767,26.8065 22.0695152,23.9890717 22.0585471,23.4648989 L22.0584,23.3815 C22.0584,19.9105 25.5464,19.9095 25.5464,19.9095 Z M33.6802,21.9355 C32.9302,21.9355 32.3242,22.5835 32.3242,23.3815 C32.3242,24.1805 32.9302,24.8275 33.6802,24.8275 C34.4292,24.8275 35.0362,24.1805 35.0362,23.3815 C35.0362,22.5835 34.4292,21.9355 33.6802,21.9355 Z M25.5474,21.9355 C24.7984,21.9355 24.1904,22.5835 24.1904,23.3815 C24.1904,24.1805 24.7984,24.8275 25.5474,24.8275 C26.2964,24.8275 26.9034,24.1805 26.9034,23.3815 C26.9034,22.5835 26.2964,21.9355 25.5474,21.9355 Z M12.1227,17.1975 L12.1227,20.7655 C12.9757,19.8795 13.9177,19.8795 13.9177,19.8795 C16.7837,19.8795 16.8927,23.3085 16.8927,23.3085 C16.8927,26.6905 13.9177,26.8065 13.9177,26.8065 C12.6467,26.8065 12.1447,25.8375 12.1447,25.8375 L12.1447,25.8375 L12.1447,26.5725 L10.0107,26.5725 L10.0107,17.1975 L12.1227,17.1975 Z M17.5713,16.9877 C20.4199154,16.9877 20.5649095,19.987842 20.5703605,20.4494023 L20.5703,26.5727 L18.5343,26.5727 L18.5343,21.0227 C18.5343,19.1097 17.5713,19.1567 17.5713,19.1567 L17.5713,19.1567 Z M13.4527,21.9355 C12.7027,21.9355 12.0957,22.5835 12.0957,23.3815 C12.0957,24.1805 12.7027,24.8275 13.4527,24.8275 C14.2017,24.8275 14.8087,24.1805 14.8087,23.3815 C14.8087,22.5835 14.2017,21.9355 13.4527,21.9355 Z" id="Fill-7" fill="#FFFFFF"></path>
    </g>
</svg>