<?xml version="1.0" encoding="utf-8"?>
<!-- Generator: Adobe Illustrator 16.0.0, SVG Export Plug-In . SVG Version: 6.00 Build 0)  -->
<!DOCTYPE svg PUBLIC "-//W3C//DTD SVG 1.1//EN" "http://www.w3.org/Graphics/SVG/1.1/DTD/svg11.dtd">
<svg version="1.1" id="Layer_1" xmlns="http://www.w3.org/2000/svg" xmlns:xlink="http://www.w3.org/1999/xlink" x="0px" y="0px"
	 width="40px" height="40px" viewBox="0 0 40 40" enable-background="new 0 0 40 40" xml:space="preserve">
<g>
	<path fill-rule="evenodd" clip-rule="evenodd" d="M19.971,0.576C30.973,0.563,39.93,9.324,39.898,20.067
		c-0.031,10.729-9.051,19.429-20.067,19.355C9.013,39.351,0.159,30.689,0.102,20.125C0.044,9.378,8.977,0.589,19.971,0.576z
		 M19.979,37.092c9.617,0.009,17.476-7.599,17.531-16.973c0.057-9.394-7.695-17.111-17.289-17.21
		c-9.789-0.102-17.768,7.623-17.73,17.167C2.526,29.456,10.363,37.082,19.979,37.092z"/>
	<path fill-rule="evenodd" clip-rule="evenodd" fill="#FFFFFF" d="M19.979,37.092c-9.615-0.01-17.452-7.636-17.488-17.017
		c-0.037-9.544,7.941-17.269,17.73-17.167c9.593,0.099,17.345,7.816,17.289,17.21C37.454,29.493,29.596,37.101,19.979,37.092z
		 M18.697,20.297c0.23,1.549,0.47,3.165,0.71,4.78c0.314-0.019,0.628-0.04,0.941-0.061c0.275-1.661,0.549-3.323,0.79-4.776
		c1.958-0.405,3.589-0.745,5.222-1.084c-0.069-0.382-0.14-0.763-0.209-1.144c-1.732-0.23-3.466-0.46-5.113-0.68
		c-0.267-1.839-0.498-3.429-0.729-5.018c-0.348,0.036-0.694,0.073-1.04,0.11c-0.169,1.608-0.337,3.218-0.52,4.965
		c-1.819,0.213-3.514,0.412-5.207,0.611c-0.039,0.385-0.078,0.769-0.116,1.154C15.129,19.524,16.833,19.893,18.697,20.297z"/>
	<path fill-rule="evenodd" clip-rule="evenodd" d="M18.697,20.297c-1.864-0.404-3.568-0.773-5.271-1.143
		c0.038-0.385,0.077-0.769,0.116-1.154c1.693-0.199,3.388-0.397,5.207-0.611c0.182-1.748,0.351-3.357,0.52-4.965
		c0.346-0.038,0.692-0.075,1.04-0.11c0.231,1.589,0.462,3.179,0.729,5.018c1.647,0.219,3.381,0.45,5.113,0.68
		c0.069,0.381,0.14,0.762,0.209,1.144c-1.633,0.339-3.264,0.679-5.222,1.084c-0.241,1.453-0.515,3.115-0.79,4.776
		c-0.313,0.021-0.627,0.042-0.941,0.061C19.167,23.462,18.927,21.847,18.697,20.297z"/>
</g>
</svg>
