<?xml version="1.0" encoding="utf-8"?>
<!-- Generator: Adobe Illustrator 16.0.0, SVG Export Plug-In . SVG Version: 6.00 Build 0)  -->
<!DOCTYPE svg PUBLIC "-//W3C//DTD SVG 1.1//EN" "http://www.w3.org/Graphics/SVG/1.1/DTD/svg11.dtd">
<svg version="1.1" id="Layer_1" xmlns="http://www.w3.org/2000/svg" xmlns:xlink="http://www.w3.org/1999/xlink" x="0px" y="0px"
	 width="18px" height="18px" viewBox="0 0 18 18" enable-background="new 0 0 18 18" xml:space="preserve">
<g>
	<path fill-rule="evenodd" clip-rule="evenodd" fill="rgba(0,0,0,0)" d="M16.338,17.701c-2.852-4.712-6.954-3.345-10.875-3.548
		c-3.314-0.172-5.66-3.845-5.43-7.128c0.221-3.156,3.154-6.299,6.232-6.68c3.199-0.396,6.715,1.842,7.287,5.216
		c0.652,3.83-1.27,8.283,4.43,10.756C17.434,16.779,16.886,17.239,16.338,17.701z M6.87,2.109c-2.755,0.108-5.163,2.687-5.108,5.47
		c0.057,2.792,2.554,5.294,5.289,5.298c2.911,0.004,5.479-2.742,5.298-5.666C12.175,4.395,9.604,2.001,6.87,2.109z"/>
</g>
</svg>
