<?xml version="1.0" encoding="utf-8"?>
<!-- Generator: Adobe Illustrator 16.0.0, SVG Export Plug-In . SVG Version: 6.00 Build 0)  -->
<!DOCTYPE svg PUBLIC "-//W3C//DTD SVG 1.1//EN" "http://www.w3.org/Graphics/SVG/1.1/DTD/svg11.dtd">
<svg version="1.1" id="Layer_1" xmlns="http://www.w3.org/2000/svg" xmlns:xlink="http://www.w3.org/1999/xlink" x="0px" y="0px"
	 width="40px" height="40px" viewBox="0 0 40 40" enable-background="new 0 0 40 40" xml:space="preserve">
<g>
	<path fill-rule="evenodd" clip-rule="evenodd" fill="#96C122" d="M29.684,15.816c-0.024,0.842-0.596,1.287-1.083,1.775
		c-2.252,2.26-4.545,4.479-6.755,6.779c-1.186,1.233-2.224,1.49-3.518,0.148c-2.354-2.438-4.783-4.805-7.178-7.204
		c-0.672-0.673-1.279-1.439-0.384-2.294c0.806-0.771,1.649-0.429,2.36,0.276c1.768,1.757,3.627,3.436,5.262,5.309
		c1.271,1.458,2.117,1.258,3.307-0.067c1.662-1.853,3.508-3.539,5.266-5.307c0.546-0.548,1.176-0.752,1.9-0.498
		C29.369,14.913,29.613,15.346,29.684,15.816z"/>
</g>
</svg>
