<?xml version="1.0" encoding="utf-8"?>
<!-- Generator: Adobe Illustrator 16.0.0, SVG Export Plug-In . SVG Version: 6.00 Build 0)  -->
<!DOCTYPE svg PUBLIC "-//W3C//DTD SVG 1.1//EN" "http://www.w3.org/Graphics/SVG/1.1/DTD/svg11.dtd">
<svg version="1.1" id="Layer_1" xmlns="http://www.w3.org/2000/svg" xmlns:xlink="http://www.w3.org/1999/xlink" x="0px" y="0px"
	 width="40px" height="40px" viewBox="0 0 40 40" enable-background="new 0 0 40 40" xml:space="preserve">
<g>
	<path fill-rule="evenodd" clip-rule="evenodd" fill="#030303" d="M3.486,24.276c-1.112-1.364-4.953-1.364-2.311-4.613
		c1.667-1.019,3.335-1.183,5.006-0.011c11.397,0,22.793,0,34.189,0C29.36,24.514,17.465,19.787,6.5,24.044
		C5.57,25.111,4.566,25.188,3.486,24.276z"/>
	<path fill-rule="evenodd" clip-rule="evenodd" fill="#2F2F2F" d="M6.182,19.653c-1.669,0.004-3.337,0.009-5.006,0.011
		C5.942,15.332,10.709,11,15.476,6.669c0.277,0.27,0.552,0.536,0.828,0.805C12.93,11.535,9.556,15.595,6.182,19.653z"/>
	<path fill-rule="evenodd" clip-rule="evenodd" fill="#2F2F2F" d="M3.486,24.276C4.491,24.2,5.495,24.119,6.5,24.044
		c3.475,3.225,6.951,6.45,10.426,9.675C10.22,32.986,6.785,28.71,3.486,24.276z"/>
</g>
</svg>
