<?xml version="1.0" encoding="utf-8"?>
<!-- Generator: Adobe Illustrator 16.0.0, SVG Export Plug-In . SVG Version: 6.00 Build 0)  -->
<!DOCTYPE svg PUBLIC "-//W3C//DTD SVG 1.1//EN" "http://www.w3.org/Graphics/SVG/1.1/DTD/svg11.dtd">
<svg version="1.1" id="Layer_1" xmlns="http://www.w3.org/2000/svg" xmlns:xlink="http://www.w3.org/1999/xlink" x="0px" y="0px"
	 width="40px" height="40px" viewBox="0 0 40 40" enable-background="new 0 0 40 40" xml:space="preserve">
<g>
	<path fill-rule="evenodd" clip-rule="evenodd" fill="#2D2D2D" d="M19.55,8.766c-2.447-0.293-3.973-1.64-4.009-4.145
		c-0.042-2.843,1.383-4.893,4.384-4.661c2.431,0.187,3.653,2.117,3.606,4.553C23.482,7.017,22.055,8.407,19.55,8.766z"/>
	<path fill-rule="evenodd" clip-rule="evenodd" fill="#252525" d="M19.484,24.314c-2.603-0.315-3.981-1.747-3.965-4.176
		c0.02-2.947,1.796-4.487,4.639-4.139c2.388,0.293,3.605,1.986,3.35,4.495C23.256,22.988,21.771,24.166,19.484,24.314z"/>
	<path fill-rule="evenodd" clip-rule="evenodd" fill="#232323" d="M19.238,31.224c2.955,0.652,4.325,2.175,4.245,4.563
		c-0.091,2.858-1.813,4.678-4.67,4.192c-2.238-0.381-3.5-2.226-3.228-4.736C15.858,32.706,17.632,31.821,19.238,31.224z"/>
</g>
</svg>
