<?xml version="1.0" encoding="utf-8"?>
<!-- Generator: Adobe Illustrator 16.0.0, SVG Export Plug-In . SVG Version: 6.00 Build 0)  -->
<!DOCTYPE svg PUBLIC "-//W3C//DTD SVG 1.1//EN" "http://www.w3.org/Graphics/SVG/1.1/DTD/svg11.dtd">
<svg version="1.1" id="Layer_1" xmlns="http://www.w3.org/2000/svg" xmlns:xlink="http://www.w3.org/1999/xlink" x="0px" y="0px"
	 width="131.021px" height="43.141px" viewBox="0 0 131.021 43.141" enable-background="new 0 0 131.021 43.141"
	 xml:space="preserve">
<g>
	<g>
		<defs>
			<rect id="SVGID_1_" width="131.021" height="43.141"/>
		</defs>
		<clipPath id="SVGID_2_">
			<use xlink:href="#SVGID_1_"  overflow="visible"/>
		</clipPath>
		<g clip-path="url(#SVGID_2_)">
			<defs>
				<rect id="SVGID_3_" width="131.021" height="43.141"/>
			</defs>
			<clipPath id="SVGID_4_">
				<use xlink:href="#SVGID_3_"  overflow="visible"/>
			</clipPath>
			<path clip-path="url(#SVGID_4_)" d="M120.893,20.768c0.016,1.912,1.549,3.462,3.461,3.462c1.914,0,3.463-1.549,3.463-3.462
				v-9.565c0-1.913-1.549-3.463-3.463-3.463c-1.912,0-3.461,1.55-3.461,3.463l0.016,5.645c0,0-0.436,1.881-2.495,1.961
				c-2.062,0.079-7.646-2.813-9.689-8.158c-0.73-1.786-1.748-2.495-3.326-2.495c-1.562,0-2.883,0.995-3.314,2.456
				c-1.934,6.374-6.489,8.345-7.916,8.443c-1.11,0.109-1.862,0.833-1.862,1.813s0.752,1.624,1.902,1.624
				c2.496,0,7.488-1.544,11.25-5.585C109.459,20.828,117.689,24.393,120.893,20.768"/>
			<path clip-path="url(#SVGID_4_)" d="M55.843,17.408c-1,0-1.81-0.81-1.81-1.81l0.011-4.872c0-1.912,1.55-3.463,3.463-3.463
				c1.912,0,3.424,1.551,3.424,3.463v3.09H80.77c2.229,0,2.908-0.488,3.616-0.713c0.989-0.317,2.091-0.104,2.511,0.84
				c0.42,0.943-0.072,1.885-0.875,2.404c-0.804,0.519-2.607,1.034-5.252,1.034h-7.575v1.901l13.726,0.032c1,0,1.809,0.81,1.809,1.81
				c0,0.999-0.809,1.81-1.809,1.81H53.466c-0.999,0-1.809-0.811-1.809-1.81c0-1,0.81-1.81,1.809-1.81l12.954-0.032v-1.901
				L55.843,17.408z"/>
			<path clip-path="url(#SVGID_4_)" d="M53.322,30.691c0-3.925,7.488-7.108,16.723-7.108c9.234,0,16.722,3.184,16.722,7.108
				c0,3.926-7.488,7.106-16.722,7.106C60.81,37.798,53.322,34.617,53.322,30.691 M70.045,34.389c5.383,0,9.748-1.655,9.748-3.697
				s-4.365-3.698-9.748-3.698c-5.385,0-9.749,1.656-9.749,3.698S64.66,34.389,70.045,34.389"/>
			<path clip-path="url(#SVGID_4_)" d="M95.628,26.236c0-1,0.81-1.811,1.81-1.811h28.64c0.999,0,1.809,0.811,1.809,1.811v8.021
				c0,0.999-0.81,1.809-1.809,1.809h-28.64c-1,0-1.81-0.81-1.81-1.809V26.236z M102.488,32.474h18.42v-4.516h-18.42V32.474z"/>
			<path clip-path="url(#SVGID_4_)" fill="#FFFFFF" d="M24.171,43.141c13.35,0,24.171-9.228,24.171-20.608
				c0-11.383-10.821-20.61-24.171-20.61C10.822,1.922,0,11.149,0,22.532C0,33.913,10.822,43.141,24.171,43.141"/>
			<path clip-path="url(#SVGID_4_)" fill="#ED1C24" d="M1.731,22.531c0-10.567,10.047-19.133,22.44-19.133
				c12.394,0,22.44,8.566,22.44,19.133c0,10.565-10.046,19.134-22.44,19.134C11.778,41.665,1.731,33.097,1.731,22.531
				 M24.171,25.774c3.937,0,7.128-4.593,7.128-10.259c0-5.665-3.191-10.259-7.128-10.259s-7.127,4.594-7.127,10.259
				C17.044,21.182,20.234,25.774,24.171,25.774"/>
		</g>
	</g>
</g>
</svg>
